# xmcd CD database file
#
# Track frame offsets:
#	150
#	16450
#	33627
#	52737
#	69725
#	86027
#	101840
#	120647
#	142835
#	160672
#
# Disc length: 2276 seconds
#
# Revision: 2
# Processed by: cddbd v1.5.1PL0 Copyright (c) Steve Scherf et al.
# Submitted via: CDex 1.51
#
DISCID=7f08e20a
DTITLE=南佳孝 - 忘れられた夏
DYEAR=1976
DGENRE=JPop
TTITLE0=これで準備OK
TTITLE1=ジャングル・ジム・ランド
TTITLE2=ブルースでも歌って
TTITLE3=眠りの島
TTITLE4=忘れられた夏
TTITLE5=月夜の晩には
TTITLE6=椰子の木の下で
TTITLE7=静かな昼下り
TTITLE8=ひとつの別れ
TTITLE9=これで準備OK(Inst.)
EXTD=YEAR:  1976
EXTT0=
EXTT1=
EXTT2=
EXTT3=
EXTT4=
EXTT5=
EXTT6=
EXTT7=
EXTT8=
EXTT9=
PLAYORDER=
